<svg width="18" height="34" viewBox="0 0 18 34" fill="none" xmlns="http://www.w3.org/2000/svg" xmlns:xlink="http://www.w3.org/1999/xlink">
<path d="M14.939,32.061C15.525,32.646 16.475,32.646 17.061,32.061C17.646,31.475 17.646,30.525 17.061,29.939L14.939,32.061ZM1,16L-0.061,14.939C-0.646,15.525 -0.646,16.475 -0.061,17.061L1,16ZM17.061,2.061C17.646,1.475 17.646,0.525 17.061,-0.061C16.475,-0.646 15.525,-0.646 14.939,-0.061L17.061,2.061ZM17.061,29.939L2.061,14.939L-0.061,17.061L14.939,32.061L17.061,29.939ZM2.061,17.061L17.061,2.061L14.939,-0.061L-0.061,14.939L2.061,17.061Z" fill="#141511"/>
</svg>
